<svg width="300" height="300" viewBox="0 0 300 300" xmlns="http://www.w3.org/2000/svg">
  <defs>
    <!-- Gradient for depth -->
    <linearGradient id="mattressGradient" x1="0%" y1="0%" x2="100%" y2="100%">
      <stop offset="0%" style="stop-color:#ffffff;stop-opacity:1" />
      <stop offset="100%" style="stop-color:#f8f8f8;stop-opacity:1" />
    </linearGradient>
    
    <!-- Pattern for quilted diamonds -->
    <pattern id="quiltPattern" x="0" y="0" width="20" height="20" patternUnits="userSpaceOnUse">
      <path d="M 0 10 L 10 0 L 20 10 L 10 20 Z" fill="none" stroke="#e5e5e5" stroke-width="0.5"/>
    </pattern>
    
    <!-- Pattern for chevron sides -->
    <pattern id="chevronPattern" x="0" y="0" width="15" height="15" patternUnits="userSpaceOnUse">
      <path d="M 0 7.5 L 7.5 0 L 15 7.5 L 7.5 15 Z" fill="none" stroke="#d0d0d0" stroke-width="0.8"/>
    </pattern>
  </defs>
  
  <!-- Background -->
  <rect width="300" height="300" fill="white"/>
  
  <!-- Stacked mattresses on the left -->
  <g transform="translate(50, 80)">
    <!-- Bottom mattress -->
    <rect x="0" y="60" width="120" height="40" fill="url(#mattressGradient)" stroke="#d0d0d0" stroke-width="1"/>
    <rect x="0" y="60" width="120" height="40" fill="url(#quiltPattern)"/>
    <rect x="0" y="60" width="8" height="40" fill="url(#chevronPattern)"/>
    <rect x="112" y="60" width="8" height="40" fill="url(#chevronPattern)"/>
    
    <!-- Second mattress -->
    <rect x="0" y="40" width="120" height="40" fill="url(#mattressGradient)" stroke="#d0d0d0" stroke-width="1"/>
    <rect x="0" y="40" width="120" height="40" fill="url(#quiltPattern)"/>
    <rect x="0" y="40" width="8" height="40" fill="url(#chevronPattern)"/>
    <rect x="112" y="40" width="8" height="40" fill="url(#chevronPattern)"/>
    
    <!-- Third mattress -->
    <rect x="0" y="20" width="120" height="40" fill="url(#mattressGradient)" stroke="#d0d0d0" stroke-width="1"/>
    <rect x="0" y="20" width="120" height="40" fill="url(#quiltPattern)"/>
    <rect x="0" y="20" width="8" height="40" fill="url(#chevronPattern)"/>
    <rect x="112" y="20" width="8" height="40" fill="url(#chevronPattern)"/>
    
    <!-- Top mattress -->
    <rect x="0" y="0" width="120" height="40" fill="url(#mattressGradient)" stroke="#d0d0d0" stroke-width="1"/>
    <rect x="0" y="0" width="120" height="40" fill="url(#quiltPattern)"/>
    <rect x="0" y="0" width="8" height="40" fill="url(#chevronPattern)"/>
    <rect x="112" y="0" width="8" height="40" fill="url(#chevronPattern)"/>
  </g>
  
  <!-- Leaning mattress on the right -->
  <g transform="translate(180, 60)">
    <!-- Main mattress body -->
    <rect x="0" y="0" width="100" height="40" fill="url(#mattressGradient)" stroke="#d0d0d0" stroke-width="1" transform="rotate(-15 50 20)"/>
    <rect x="0" y="0" width="100" height="40" fill="url(#quiltPattern)" transform="rotate(-15 50 20)"/>
    
    <!-- Side of leaning mattress -->
    <rect x="0" y="0" width="8" height="40" fill="url(#chevronPattern)" transform="rotate(-15 50 20)"/>
  </g>
  
  <!-- Subtle shadows -->
  <ellipse cx="150" cy="280" rx="80" ry="10" fill="#f0f0f0" opacity="0.6"/>
</svg>
